<svg xmlns="http://www.w3.org/2000/svg" fill="none" viewBox="0 0 150 150"><g opacity=".05"><path fill="#F07" d="m42 61.48-3.02-2.75C28.25 49 21.17 42.58 21.17 34.7c0-6.42 5.04-11.46 11.45-11.46 3.63 0 7.1 1.69 9.38 4.35a12.48 12.48 0 0 1 9.37-4.35c6.42 0 11.46 5.04 11.46 11.46 0 7.87-7.08 14.29-17.8 24.04L42 61.48Zm66 66-3.02-2.75C94.25 115 87.17 108.58 87.17 100.7c0-6.42 5.04-11.46 11.45-11.46 3.63 0 7.1 1.69 9.38 4.35a12.48 12.48 0 0 1 9.38-4.35c6.41 0 11.45 5.04 11.45 11.46 0 7.87-7.08 14.29-17.8 24.04l-3.03 2.73Z"/><path fill="#5BA1BE" d="M82 18h8.82v21h-6.3A2.5 2.5 0 0 1 82 36.53V18Zm8.82 15.44h11.34L105 39H90.82v-5.56ZM16 84h8.82v21h-6.3a2.5 2.5 0 0 1-2.52-2.47V84Zm8.82 15.44h11.34L39 105H24.82v-5.56Z"/><path fill="#5BA1BE" fill-rule="evenodd" d="M110.53 18a3 3 0 0 0-3 3v15.17a3 3 0 0 0 3 3H131a3 3 0 0 0 3-3V21a3 3 0 0 0-3-3h-20.47Zm6.41 5.6a1 1 0 0 0-1 1v7.97a1 1 0 0 0 1 1h7.65a1 1 0 0 0 1-1V24.6a1 1 0 0 0-1-1h-7.65ZM44.53 84a3 3 0 0 0-3 3v15.17a3 3 0 0 0 3 3H65a3 3 0 0 0 3-3V87a3 3 0 0 0-3-3H44.53Zm6.41 5.6a1 1 0 0 0-1 1v7.97a1 1 0 0 0 1 1h7.65a1 1 0 0 0 1-1V90.6a1 1 0 0 0-1-1h-7.65ZM101 45.4H85.42L88.4 51h12.08c.28 0 .5.23.5.5v1.2a.5.5 0 0 1-.5.49H89.16v5.29h11.33c.28 0 .5.22.5.5v1.19a.5.5 0 0 1-.5.49H88.41l-2.98 5.6h20.97a3 3 0 0 0 3-3V48.4a3 3 0 0 0-3-3H101Zm-66 66H19.42l2.98 5.6h12.1c.28 0 .5.23.5.5v1.2a.5.5 0 0 1-.5.49H23.16v5.29H34.5c.28 0 .5.22.5.5v1.19a.5.5 0 0 1-.5.49H22.41l-2.98 5.6H40.4a3 3 0 0 0 3-3V114.4a3 3 0 0 0-3-3H35Zm77.83-66h12.76v15.26h4.36v5.6h-17.12v-5.6h4.36V51h-4.36v-5.6Zm-66 66h12.76v15.26h4.36v5.6H46.83v-5.6h4.36V117h-4.36v-5.6Z" clip-rule="evenodd"/></g></svg>
